<?xml version="1.0" standalone="no"?>
<!DOCTYPE svg PUBLIC "-//W3C//DTD SVG 20010904//EN"
 "http://www.w3.org/TR/2001/REC-SVG-20010904/DTD/svg10.dtd">
<svg version="1.0" xmlns="http://www.w3.org/2000/svg"
 width="720.000000pt" height="720.000000pt" viewBox="0 0 720.000000 720.000000"
 preserveAspectRatio="xMidYMid meet">

<g transform="translate(0.000000,720.000000) scale(0.100000,-0.100000)"
fill="#FFFFFF" stroke="none">
<path d="M2462 6370 c-67 -31 -32 3 -1117 -1105 -259 -264 -561 -572 -672
-685 -111 -113 -216 -223 -233 -245 -67 -83 -80 -163 -33 -206 60 -54 56 -54
523 -59 l435 -5 5 -1565 c4 -1319 7 -1569 19 -1590 33 -58 66 -91 119 -117
l57 -28 440 0 c425 0 442 1 485 21 58 26 108 76 134 134 l21 45 0 2645 0 2645
-21 45 c-12 25 -30 52 -40 61 -28 25 -79 28 -122 9z"/>
<path d="M6032 6159 c-136 -23 -214 -116 -228 -271 l-7 -78 -58 0 -59 0 0
-105 0 -105 60 0 60 0 1 -302 c0 -167 1 -323 2 -348 l2 -45 128 -3 127 -3 0
351 0 350 100 0 100 0 0 105 0 105 -100 0 -100 0 0 46 c0 37 5 51 29 75 33 32
64 36 115 15 l34 -14 32 76 31 77 -28 22 c-54 44 -157 66 -241 52z"/>
<path d="M5250 5515 l0 -616 133 3 132 3 3 613 2 612 -135 0 -135 0 0 -615z"/>
<path d="M2865 6098 c-3 -7 -4 -278 -3 -603 l3 -590 133 -3 132 -3 0 251 0
250 285 0 285 0 0 -250 0 -250 130 0 130 0 0 605 0 605 -130 0 -130 0 -2 -237
-3 -238 -282 -3 -283 -2 0 240 0 240 -130 0 c-95 0 -132 -3 -135 -12z"/>
<path d="M4510 5824 c-64 -13 -173 -46 -224 -68 l-56 -25 42 -86 c32 -65 46
-84 58 -79 81 37 152 53 225 54 132 0 202 -48 213 -148 5 -41 3 -45 -14 -38
-111 43 -294 46 -397 7 -128 -50 -198 -139 -205 -264 -4 -57 0 -75 22 -122 44
-88 129 -144 250 -166 112 -19 241 11 311 73 l34 29 3 -43 3 -43 128 -3 128
-3 -3 324 -3 325 -40 78 c-69 135 -173 194 -350 200 -55 1 -111 0 -125 -2z
m203 -536 l57 -11 0 -57 c0 -43 -5 -64 -21 -84 -53 -68 -198 -97 -277 -57 -89
45 -96 142 -14 193 61 37 123 41 255 16z"/>
<path d="M2782 4313 c3 -10 88 -282 189 -606 l184 -588 134 3 133 3 146 408
c80 224 148 404 152 400 6 -6 197 -537 277 -770 l15 -43 132 0 133 0 186 598
c103 328 187 600 187 605 0 4 -64 6 -142 5 l-142 -3 -108 -375 c-59 -206 -110
-386 -113 -400 -5 -19 -8 -21 -15 -10 -4 8 -56 157 -115 330 -58 173 -118 348
-132 388 l-26 72 -142 0 -142 0 -133 -392 c-73 -216 -136 -397 -140 -401 -4
-4 -58 171 -121 390 l-114 398 -144 3 c-133 2 -143 1 -139 -15z"/>
<path d="M5107 4040 c-96 -16 -267 -78 -267 -95 0 -3 18 -41 40 -84 l39 -79
58 23 c123 50 252 52 329 5 36 -23 74 -91 74 -133 0 -25 -3 -27 -27 -21 -16 4
-39 11 -53 16 -45 17 -195 22 -261 9 -119 -24 -218 -92 -260 -179 -28 -56 -31
-158 -7 -213 80 -186 388 -247 564 -113 l44 34 0 -45 0 -46 128 3 127 3 3 250
c4 373 -11 454 -99 550 -94 102 -254 144 -432 115z m225 -533 c42 -13 43 -14
46 -61 6 -90 -66 -154 -183 -163 -112 -9 -185 37 -185 117 0 107 149 157 322
107z"/>
<path d="M5770 4028 c0 -2 87 -208 194 -458 l194 -455 -19 -37 c-40 -78 -116
-99 -206 -58 l-43 19 -25 -80 c-14 -44 -25 -84 -25 -89 0 -5 26 -19 58 -31 46
-18 78 -23 162 -23 98 -1 108 1 159 29 63 35 123 100 161 175 20 40 348 842
407 997 4 10 -24 13 -130 13 l-135 0 -30 -77 c-16 -43 -67 -183 -113 -310 -46
-128 -87 -233 -90 -233 -3 0 -60 138 -125 308 l-120 307 -137 3 c-75 1 -137 1
-137 0z"/>
<path d="M2862 2153 c4 -376 5 -402 26 -464 87 -261 355 -408 650 -355 194 35
342 150 407 317 38 98 46 202 43 564 l-3 330 -132 3 -132 3 -3 -383 c-3 -375
-3 -384 -26 -433 -27 -60 -82 -119 -137 -148 -32 -18 -57 -22 -130 -22 -81 0
-95 3 -144 30 -32 17 -68 49 -88 75 -60 82 -63 104 -63 512 l0 368 -136 0
-136 0 4 -397z"/>
<path d="M4697 2260 c-55 -14 -127 -53 -169 -93 l-38 -35 0 59 0 59 -135 0
-135 0 0 -605 0 -605 135 0 135 0 0 211 0 211 45 -40 c179 -157 457 -125 600
69 68 92 90 170 89 309 -1 92 -5 127 -23 175 -46 127 -135 222 -248 266 -65
24 -194 34 -256 19z m126 -223 c121 -51 179 -201 131 -339 -17 -51 -68 -109
-116 -134 -43 -22 -133 -29 -188 -14 -58 16 -133 89 -149 145 -17 63 -13 174
8 220 20 44 69 94 116 118 38 20 154 22 198 4z"/>
</g>
</svg>
